HIERARCHY
ROOT Hips
{
	OFFSET 0.00000 0.00000 0.00000
	CHANNELS 6 Xposition Yposition Zposition Zrotation Yrotation Xrotation 
	JOINT LHipJoint
	{
		OFFSET 0 0 0
		CHANNELS 3 Zrotation Yrotation Xrotation
		JOINT LeftUpLeg
		{
			OFFSET 1.53139 -1.83434 0.76626
			CHANNELS 3 Zrotation Yrotation Xrotation
			JOINT LeftLeg
			{
				OFFSET 2.56112 -7.03663 0.00000
				CHANNELS 3 Zrotation Yrotation Xrotation
				JOINT LeftFoot
				{
					OFFSET 2.59983 -7.14299 0.00000
					CHANNELS 3 Zrotation Yrotation Xrotation
					JOINT LeftToeBase
					{
						OFFSET 0.13742 -0.37757 2.00054
						CHANNELS 3 Zrotation Yrotation Xrotation
						End Site
						{
							OFFSET 0.00000 -0.00000 1.02897
						}
					}
				}
			}
		}
	}
	JOINT RHipJoint
	{
		OFFSET 0 0 0
		CHANNELS 3 Zrotation Yrotation Xrotation
		JOINT RightUpLeg
		{
			OFFSET -1.40122 -1.83435 0.76627
			CHANNELS 3 Zrotation Yrotation Xrotation
			JOINT RightLeg
			{
				OFFSET -2.54052 -6.98003 0.00000
				CHANNELS 3 Zrotation Yrotation Xrotation
				JOINT RightFoot
				{
					OFFSET -2.63179 -7.23079 0.00000
					CHANNELS 3 Zrotation Yrotation Xrotation
					JOINT RightToeBase
					{
						OFFSET -0.24131 -0.66299 2.03908
						CHANNELS 3 Zrotation Yrotation Xrotation
						End Site
						{
							OFFSET -0.00000 -0.00000 1.07391
						}
					}
				}
			}
		}
	}
	JOINT LowerBack
	{
		OFFSET 0 0 0
		CHANNELS 3 Zrotation Yrotation Xrotation
		JOINT Spine
		{
			OFFSET 0.01174 2.10302 -0.29778
			CHANNELS 3 Zrotation Yrotation Xrotation
			JOINT Spine1
			{
				OFFSET 0.00772 2.13227 -0.01247
				CHANNELS 3 Zrotation Yrotation Xrotation
				JOINT Neck
				{
					OFFSET 0 0 0
					CHANNELS 3 Zrotation Yrotation Xrotation
					JOINT Neck1
					{
						OFFSET -0.09219 1.60848 0.31481
						CHANNELS 3 Zrotation Yrotation Xrotation
						JOINT Head
						{
							OFFSET 0.13974 1.65456 -0.31134
							CHANNELS 3 Zrotation Yrotation Xrotation
							End Site
							{
								OFFSET 0.04742 1.69515 -0.14578
							}
						}
					}
				}
				JOINT LeftShoulder
				{
					OFFSET 0 0 0
					CHANNELS 3 Zrotation Yrotation Xrotation
					JOINT LeftArm
					{
						OFFSET 3.24909 1.02882 -0.23993
						CHANNELS 3 Zrotation Yrotation Xrotation
						JOINT LeftForeArm
						{
							OFFSET 5.32955 -0.00000 -0.00000
							CHANNELS 3 Zrotation Yrotation Xrotation
							JOINT LeftHand
							{
								OFFSET 3.69232 -0.00000 -0.00000
								CHANNELS 3 Zrotation Yrotation Xrotation
								JOINT LeftFingerBase
								{
									OFFSET 0 0 0
									CHANNELS 3 Zrotation Yrotation Xrotation
									JOINT LeftHandIndex1
									{
										OFFSET 0.53660 -0.00000 -0.00000
										CHANNELS 3 Zrotation Yrotation Xrotation
										End Site
										{
											OFFSET 0.43262 -0.00000 -0.00000
										}
									}
								}
								JOINT LThumb
								{
									OFFSET 0 0 0
									CHANNELS 3 Zrotation Yrotation Xrotation
									End Site
									{
										OFFSET 0.43922 -0.00000 0.43922
									}
								}
							}
						}
					}
				}
				JOINT RightShoulder
				{
					OFFSET 0 0 0
					CHANNELS 3 Zrotation Yrotation Xrotation
					JOINT RightArm
					{
						OFFSET -3.21387 0.93002 -0.34594
						CHANNELS 3 Zrotation Yrotation Xrotation
						JOINT RightForeArm
						{
							OFFSET -5.23431 -0.00000 0.00000
							CHANNELS 3 Zrotation Yrotation Xrotation
							JOINT RightHand
							{
								OFFSET -3.55301 -0.00000 -0.00000
								CHANNELS 3 Zrotation Yrotation Xrotation
								JOINT RightFingerBase
								{
									OFFSET 0 0 0
									CHANNELS 3 Zrotation Yrotation Xrotation
									JOINT RightHandIndex1
									{
										OFFSET -0.77252 -0.00000 -0.00000
										CHANNELS 3 Zrotation Yrotation Xrotation
										End Site
										{
											OFFSET -0.62283 -0.00000 -0.00000
										}
									}
								}
								JOINT RThumb
								{
									OFFSET 0 0 0
									CHANNELS 3 Zrotation Yrotation Xrotation
									End Site
									{
										OFFSET -0.63234 -0.00000 0.63234
									}
								}
							}
						}
					}
				}
			}
		}
	}
}
MOTION
Frames: 9
Frame Time: .0083333
-12.1339 17.6646 15.1163 363.0130 -24.0617 -2.8533 0.0000 0.0000 0.0000 -18.4624 -12.7204 -9.0985 1.6935 8.1962 23.3116 -0.8067 -18.1401 -3.0980 0.1871 -2.7861 -7.6839 0.0000 0.0000 0.0000 15.5539 7.0658 -12.0867 -3.7364 -11.8011 35.0321 -0.8149 8.6373 -16.3016 -0.0410 1.3068 -3.5933 1.6310 0.8948 12.2414 0.7198 1.4208 1.8342 -0.3966 0.6690 -4.9163 -12.0360 -1.0867 -15.7406 4.0583 0.5828 39.2091 4.0510 -1.1009 16.8706 0.0000 -0.0000 0.0000 -85.0156 -1.1576 24.8040 23.6855 -34.8299 -7.5262 -0.0000 -0.0000 0.0425 23.8587 22.7947 9.7233 -7.1250 0.0000 -0.0000 -5.5059 54.5754 -1.2982 0.0000 -0.0000 0.0000 84.7311 -3.9458 10.6965 -23.0331 34.1249 -7.1568 0.0000 0.0000 4.3599 -15.6527 10.7777 -2.9994 7.1250 -0.0000 -0.0000 8.0547 -18.8577 5.0691
-12.1470 17.6647 15.1063 363.1450 -23.4846 -2.7164 0.0000 0.0000 0.0000 -18.5121 -13.0520 -9.3248 1.7058 8.2242 23.3972 -0.7981 -18.3083 -3.5352 0.2719 -3.3543 -9.2666 0.0000 0.0000 0.0000 15.4034 6.7016 -12.2922 -3.7071 -11.7601 34.8886 -0.8095 8.4979 -16.2312 -0.0399 1.2892 -3.5449 1.6517 0.9151 12.2360 0.6420 1.4486 1.7491 -0.4950 0.6811 -4.9997 -12.0405 -1.1455 -15.7163 3.9902 0.5287 39.2427 4.0132 -1.1320 16.8921 0.0000 -0.0000 0.0000 -84.9912 -1.1484 24.7580 23.6119 -34.7512 -7.4842 -0.0000 0.0000 -0.0889 23.0461 23.4112 9.5942 -7.1250 0.0000 -0.0000 -6.5759 55.0576 -1.6293 0.0000 -0.0000 0.0000 84.7030 -4.0085 10.8953 -22.9948 34.0831 -7.1354 0.0000 0.0000 4.2070 -15.9649 10.4460 -2.9692 7.1250 -0.0000 -0.0000 7.8385 -19.1785 4.8740
-12.1656 17.6683 15.0957 362.9080 -22.9363 -2.4973 0.0000 0.0000 0.0000 -18.1687 -13.1959 -9.5597 1.7230 8.2635 23.5173 -0.7806 -18.4812 -4.1018 0.3990 -4.0555 -11.2329 0.0000 0.0000 0.0000 15.6868 6.4145 -12.3525 -3.6780 -11.7191 34.7453 -0.7953 8.4401 -16.0893 -0.0250 1.0198 -2.8033 1.9090 0.9305 12.2195 0.6969 1.5075 1.6854 -0.5925 0.7052 -5.0512 -12.0523 -1.1858 -15.5397 3.9111 0.4845 39.1770 3.9667 -1.1558 16.8199 -0.0000 -0.0000 0.0000 -85.1414 -1.0566 24.5536 23.6339 -34.7747 -7.4967 -0.0000 -0.0000 0.1086 22.5610 23.9484 9.5724 -7.1250 0.0000 -0.0000 -7.2906 55.5171 -1.8892 -0.0000 -0.0000 0.0000 84.6212 -4.0324 11.0103 -22.8815 33.9590 -7.0720 0.0000 0.0000 4.0821 -16.1598 10.0995 -2.9089 7.1250 -0.0000 -0.0000 7.7047 -19.5228 4.7296
-12.1848 17.6749 15.0860 362.4480 -22.3462 -2.2094 0.0000 0.0000 0.0000 -17.5925 -13.2150 -9.8310 1.7371 8.2955 23.6152 -0.7756 -18.6750 -4.4809 0.5322 -4.6749 -12.9835 0.0000 0.0000 0.0000 16.2185 6.1015 -12.3688 -3.6476 -11.6761 34.5955 -0.7992 8.1753 -16.0917 -0.0195 0.9016 -2.4781 2.3956 0.9277 12.1589 0.8211 1.5735 1.6642 -0.7461 0.7299 -5.0288 -12.0994 -1.2308 -15.3702 3.8268 0.4500 39.0322 3.9230 -1.1767 16.7066 -0.0000 0.0000 0.0000 -85.3566 -0.9707 24.3623 23.6685 -34.8117 -7.5165 -0.0000 -0.0000 0.3897 23.0900 23.3254 9.5816 -7.1250 0.0000 -0.0000 -6.4982 54.9771 -1.5972 -0.0000 0.0000 0.0000 84.5275 -3.9258 10.8612 -22.6135 33.6634 -6.9228 0.0000 0.0000 4.1017 -16.2518 10.3133 -2.9875 7.1250 -0.0000 -0.0000 7.6370 -19.2973 4.7261
-12.2014 17.6780 15.0753 362.3450 -21.7457 -1.9845 0.0000 0.0000 0.0000 -17.3535 -13.1375 -10.2255 1.7513 8.3277 23.7139 -0.7829 -18.9343 -4.7662 0.6760 -5.2573 -14.6438 0.0000 0.0000 0.0000 16.3524 5.7420 -12.5152 -3.6128 -11.6266 34.4234 -0.8104 7.8460 -16.1602 -0.0278 1.0765 -2.9592 2.5599 0.9488 12.0875 0.8589 1.6254 1.5898 -0.8068 0.7520 -5.0625 -12.3929 -1.3122 -15.3232 4.1060 0.3175 38.9551 4.0756 -1.2281 16.6681 0.0000 0.0000 0.0000 -85.5900 -0.8888 24.0981 23.5567 -34.6919 -7.4527 -0.0000 -0.0000 0.6864 23.4213 22.3750 9.3637 -7.1250 0.0000 -0.0000 -5.8185 54.0484 -1.2975 0.0000 0.0000 0.0000 84.4196 -3.9589 10.7496 -22.4314 33.4611 -6.8222 0.0000 0.0000 3.9047 -16.3606 10.6261 -3.0986 7.1250 -0.0000 -0.0000 7.5570 -18.9683 4.7315
-12.2238 17.6797 15.0700 362.2940 -21.2733 -1.9180 0.0000 0.0000 0.0000 -17.1521 -12.9334 -10.4396 1.7674 8.3638 23.8247 -0.7736 -19.1126 -5.1618 0.7739 -5.6169 -15.6769 0.0000 0.0000 0.0000 16.4715 5.4820 -12.4505 -3.5693 -11.5640 34.2067 -0.8136 7.5667 -16.1633 -0.0308 1.1338 -3.1170 2.5992 1.0161 12.0413 0.8876 1.7199 1.5968 -0.8128 0.7987 -5.0263 -12.8547 -1.4589 -15.4714 4.6567 0.0659 38.9897 4.3694 -1.3229 16.7528 -0.0000 0.0000 0.0000 -85.8021 -0.8676 23.7510 23.3851 -34.5072 -7.3553 -0.0000 -0.0000 1.0271 22.9043 21.9328 8.9681 -7.1250 0.0000 -0.0000 -6.2030 53.4855 -1.2984 -0.0000 0.0000 0.0000 84.3307 -3.9583 10.7361 -22.3125 33.3284 -6.7567 0.0000 0.0000 3.8017 -16.3218 10.7652 -3.1308 7.1250 -0.0000 -0.0000 7.5833 -18.8276 4.7721
-12.2458 17.6879 15.0621 362.2380 -20.8101 -1.9128 0.0000 0.0000 0.0000 -16.9257 -12.7413 -10.5724 1.7791 8.3901 23.9052 -0.7703 -19.1344 -5.2389 0.5869 -4.9050 -13.6377 0.0000 0.0000 0.0000 16.6055 5.2371 -12.3178 -3.5238 -11.4982 33.9793 -0.8055 7.3704 -16.0683 -0.0224 0.9664 -2.6562 2.6154 1.0692 12.0747 0.9056 1.7930 1.6507 -0.8148 0.8355 -4.9860 -13.0124 -1.5585 -15.6487 4.8810 -0.0822 39.0400 4.4807 -1.3760 16.8439 0.0000 0.0000 0.0000 -85.9935 -0.7752 23.4285 23.3098 -34.4258 -7.3127 -0.0000 -0.0000 1.2272 22.6899 21.4884 8.7076 -7.1250 0.0000 -0.0000 -6.2759 52.9799 -1.2360 0.0000 0.0000 0.0000 84.2451 -3.7855 10.6361 -22.0892 33.0777 -6.6345 0.0000 0.0000 4.3819 -15.9971 10.9443 -3.1155 7.1250 -0.0000 -0.0000 7.8105 -18.6647 4.9463
-12.2628 17.7067 15.0470 362.1520 -20.2567 -1.7693 0.0000 0.0000 0.0000 -16.6434 -12.6631 -10.8704 1.7852 8.4035 23.9466 -0.7317 -18.7600 -5.2475 0.3904 -4.0123 -11.1112 0.0000 0.0000 0.0000 16.7511 4.9221 -12.3636 -3.4742 -11.4258 33.7297 -0.7946 7.1568 -15.9442 -0.0166 0.8319 -2.2864 2.6733 1.0908 12.0935 0.9424 1.8327 1.6339 -0.8159 0.8538 -5.0122 -13.0285 -1.6142 -15.6829 4.8871 -0.1480 38.9993 4.4742 -1.3990 16.8404 -0.0000 0.0000 0.0000 -86.2010 -0.5992 23.1850 23.2667 -34.3791 -7.2883 -0.0000 -0.0000 1.4637 22.9346 21.1377 8.6756 -7.1250 0.0000 -0.0000 -5.9156 52.6575 -1.1179 -0.0000 0.0000 0.0000 84.1251 -3.6490 10.3393 -21.8363 32.7915 -6.4969 0.0000 0.0000 5.1197 -15.6337 11.1539 -3.0986 7.1250 -0.0000 -0.0000 8.0639 -18.4734 5.1444
-12.2797 17.7232 15.0356 362.0260 -19.6747 -1.6138 0.0000 0.0000 0.0000 -16.3544 -12.5478 -11.1492 1.7943 8.4239 24.0091 -0.6064 -17.9273 -5.8754 0.4727 -4.4094 -12.2315 0.0000 0.0000 0.0000 16.9343 4.5803 -12.3881 -3.4199 -11.3457 33.4548 -0.7923 6.8968 -15.9031 -0.0206 0.9261 -2.5454 2.8108 1.1172 12.0506 0.9789 1.8866 1.6225 -0.8627 0.8784 -4.9955 -13.2018 -1.7053 -15.5905 5.1032 -0.3202 38.9183 4.5695 -1.4581 16.7968 -0.0000 0.0000 0.0000 -86.4122 -0.4557 22.9189 23.1793 -34.2843 -7.2391 -0.0000 -0.0000 1.7971 22.8741 20.7653 8.5069 -7.1250 0.0000 -0.0000 -5.8619 52.2552 -1.0499 -0.0000 0.0000 0.0000 84.0239 -3.5686 10.0539 -21.6285 32.5546 -6.3848 0.0000 0.0000 5.3483 -15.5388 11.2528 -3.1058 7.1250 -0.0000 -0.0000 8.1295 -18.3783 5.2044
